<svg width="381" height="136" viewBox="0 0 381 136" fill="none" xmlns="http://www.w3.org/2000/svg">
<rect width="381" height="136" fill="white"/>
<rect x="347" width="34" height="31" fill="black"/>
<path d="M360 10.8C360 10 359.6 9.6 358.8 9.6H356.6C355.8 9.6 355.4 10 355.4 10.8V17.2C355.4 18 355.8 18.4 356.6 18.4H358.8C359.6 18.4 360 18 360 17.2V10.8ZM363.6 17.2C363.6 18.6 363.28 19.62 362.64 20.26C362.013 20.8867 361 21.2 359.6 21.2H355.8C354.4 21.2 353.38 20.8867 352.74 20.26C352.113 19.62 351.8 18.6 351.8 17.2V10.8C351.8 9.4 352.113 8.38667 352.74 7.76C353.38 7.12 354.4 6.8 355.8 6.8H359.6C361 6.8 362.013 7.12 362.64 7.76C363.28 8.38667 363.6 9.4 363.6 10.8V17.2ZM368.998 6.8C370.825 6.8 373.025 6.93333 375.598 7.2V9.9C374.865 9.86 374.238 9.82667 373.718 9.8C373.212 9.76 372.792 9.73333 372.458 9.72C372.138 9.69333 371.818 9.66667 371.498 9.64C370.965 9.61333 370.472 9.6 370.018 9.6C369.205 9.6 368.798 9.93333 368.798 10.6V12.4C370.092 12.1333 371.225 12 372.198 12H373.598C374.505 12 375.232 12.2733 375.778 12.82C376.325 13.3667 376.598 14.0933 376.598 15V17.6C376.598 18.8133 376.292 19.72 375.678 20.32C375.065 20.9067 374.105 21.2 372.798 21.2H368.998C367.692 21.2 366.732 20.9067 366.118 20.32C365.505 19.72 365.198 18.8133 365.198 17.6V10.6C365.198 9.29333 365.505 8.33333 366.118 7.72C366.732 7.10667 367.692 6.8 368.998 6.8ZM371.198 14.8C370.692 14.8 370.225 14.8267 369.798 14.88C369.385 14.9333 369.052 14.9733 368.798 15V17.2C368.798 18 369.198 18.4 369.998 18.4H371.798C372.598 18.4 372.998 18 372.998 17.2V15.5C372.998 15.3 372.932 15.1333 372.798 15C372.665 14.8667 372.498 14.8 372.298 14.8H371.198Z" fill="white"/>
</svg>
